<?xml version="1.0" encoding="UTF-8" standalone="no"?>
<!DOCTYPE svg PUBLIC "-//W3C//DTD SVG 20010904//EN"
              "http://www.w3.org/TR/2001/REC-SVG-20010904/DTD/svg10.dtd">

<svg xmlns="http://www.w3.org/2000/svg"
     width="5.1in" height="3.0in"
     viewBox="0 0 277 233">
  <path id="reject"
        fill="#c12e16" stroke="black" stroke-width="1"
        d="M 69.23,32.66
           C 67.07,33.32 65.76,35.05 64.18,36.61
             64.18,36.61 56.37,44.37 56.37,44.37
             56.37,44.37 44.89,55.77 44.89,55.77
             43.93,56.73 41.31,58.99 41.31,60.34
             41.31,61.56 43.14,63.16 43.97,63.99
             43.97,63.99 51.32,71.29 51.32,71.29
             51.32,71.29 82.10,101.86 82.10,101.86
             82.10,101.86 94.04,113.72 94.04,113.72
             95.10,114.78 98.05,117.13 97.62,118.74
             97.35,119.75 94.87,122.01 94.04,122.84
             94.04,122.84 85.77,131.06 85.77,131.06
             85.77,131.06 53.62,162.99 53.62,162.99
             53.62,162.99 44.89,171.66 44.89,171.66
             44.00,172.54 41.68,174.63 41.42,175.77
             40.99,177.66 45.42,181.31 46.73,182.61
             46.73,182.61 62.80,198.58 62.80,198.58
             64.01,199.78 67.65,203.88 69.23,203.90
             70.59,203.92 72.45,201.77 73.37,200.86
             73.37,200.86 83.47,190.82 83.47,190.82
             83.47,190.82 114.71,159.80 114.71,159.80
             114.71,159.80 122.98,151.59 122.98,151.59
             123.81,150.76 126.09,148.29 127.11,148.03
             128.61,147.64 130.29,149.74 131.24,150.67
             131.24,150.67 141.81,161.17 141.81,161.17
             141.81,161.17 171.66,190.82 171.66,190.82
             171.66,190.82 180.39,199.49 180.39,199.49
             181.30,200.40 184.01,203.24 184.99,203.68
             187.21,204.68 190.86,200.04 192.33,198.58
             192.33,198.58 208.87,182.16 208.87,182.16
             210.12,180.92 214.22,177.57 213.77,175.77
             213.50,174.69 211.11,172.52 210.25,171.66
             210.25,171.66 201.98,163.45 201.98,163.45
             201.98,163.45 170.75,132.42 170.75,132.42
             170.75,132.42 160.64,122.39 160.64,122.39
             159.77,121.52 157.44,119.53 157.44,118.28
             157.44,116.98 160.17,114.64 161.10,113.72
             161.10,113.72 171.66,103.22 171.66,103.22
             171.66,103.22 203.36,71.74 203.36,71.74
             203.36,71.74 211.17,63.99 211.17,63.99
             212.02,63.13 213.79,61.61 213.77,60.34
             213.75,58.95 211.22,56.75 210.25,55.77
             210.25,55.77 199.22,44.82 199.22,44.82
             199.22,44.82 187.28,33.19 187.28,33.19
             185.10,31.79 183.72,33.78 182.23,35.24
             182.23,35.24 172.12,45.28 172.12,45.28
             172.12,45.28 139.51,77.67 139.51,77.67
             139.51,77.67 131.24,85.89 131.24,85.89
             130.43,86.69 128.76,88.61 127.57,88.61
             126.32,88.61 124.31,86.30 123.44,85.43
             123.44,85.43 112.87,74.94 112.87,74.94
             112.87,74.94 82.10,44.37 82.10,44.37
             82.10,44.37 74.29,36.61 74.29,36.61
             72.73,35.07 71.38,33.26 69.23,32.66 Z" />
</svg>
