<?xml version="1.0" encoding="UTF-8" standalone="no"?>
<!DOCTYPE svg PUBLIC "-//W3C//DTD SVG 20010904//EN"
              "http://www.w3.org/TR/2001/REC-SVG-20010904/DTD/svg10.dtd">

<svg xmlns="http://www.w3.org/2000/svg"
     width="5.1in" height="3.0in"
     viewBox="0 0 277 233">
  <path id="success"
        fill="#43cd56" stroke="black" stroke-width="1"
        d="M 212.00,43.39
           C 204.76,46.40 193.92,59.08 188.00,65.00
             188.00,65.00 140.00,113.00 140.00,113.00
             140.00,113.00 126.00,127.00 126.00,127.00
             124.48,128.52 120.85,132.38 119.00,133.09
             114.83,134.68 107.79,125.79 105.00,123.00
             105.00,123.00 81.00,99.00 81.00,99.00
             75.10,93.19 69.05,88.88 61.00,94.51
             58.67,96.14 54.20,100.80 52.00,103.00
             46.12,108.88 37.33,114.92 38.11,124.00
             38.72,131.15 45.22,136.22 50.00,141.00
             50.00,141.00 81.00,172.00 81.00,172.00
             81.00,172.00 102.00,193.00 102.00,193.00
             106.09,197.08 109.90,201.71 116.00,202.44
             122.62,203.24 126.66,199.28 131.00,195.00
             131.00,195.00 150.00,176.00 150.00,176.00
             150.00,176.00 215.00,111.00 215.00,111.00
             215.00,111.00 235.00,91.00 235.00,91.00
             237.68,88.31 243.24,83.17 244.83,80.00
             250.54,68.58 237.00,58.99 230.00,52.00
             226.21,48.22 222.65,43.83 217.00,43.39
             214.97,42.97 213.94,43.24 212.00,43.39 Z" />
</svg>
